<svg width="309" height="308" viewBox="0 0 309 308" fill="none" xmlns="http://www.w3.org/2000/svg">
<g filter="url(#filter0_d_37_7)">
<path d="M304.005 116.9C304.005 117.3 304.005 117.6 304.005 118C304.305 87.1 292.305 56.8 269.805 34.3C247.505 12 217.705 0 187.105 0H120.805C90.3055 0 60.5055 12 38.2055 34.2C15.7055 56.7 3.70549 87 4.00549 117.9C4.00549 117.5 4.00549 117.2 4.00549 116.8V183.1C4.00549 182.7 4.00549 182.4 4.00549 182C3.70549 212.9 15.7055 243.2 38.2055 265.7C60.7055 288.2 91.0055 300.2 121.905 299.9C121.505 299.9 121.205 299.9 120.805 299.9H187.105C186.705 299.9 186.405 299.9 186.005 299.9C216.905 300.2 247.206 288.2 269.706 265.7C292.206 243.2 304.205 212.9 303.905 182C303.905 182.4 303.905 182.7 303.905 183.1V116.9H304.005ZM300.505 145.1C300.805 143.9 301.105 142.7 301.305 141.5C301.105 142.7 300.805 143.9 300.505 145.1C300.205 146.3 300.005 147.5 299.905 148.8C300.105 147.5 300.205 146.3 300.505 145.1ZM304.005 119.6C304.005 120.3 304.005 120.9 303.905 121.6C303.905 120.9 303.905 120.3 304.005 119.6ZM303.805 123.3C303.805 124 303.706 124.6 303.706 125.3C303.706 124.6 303.805 123.9 303.805 123.3ZM303.605 126.9C303.505 127.5 303.505 128.2 303.405 128.8C303.405 128.2 303.505 127.6 303.605 126.9ZM303.206 130.6C303.106 131.2 303.005 131.8 303.005 132.4C303.005 131.8 303.106 131.2 303.206 130.6ZM302.706 134.3C302.606 134.9 302.505 135.5 302.405 136.1C302.505 135.5 302.606 134.9 302.706 134.3ZM302.105 137.9C302.005 138.5 301.906 139.2 301.706 139.8C301.806 139.2 302.005 138.5 302.105 137.9ZM80.9055 69.4C86.7055 56.4 94.7055 44.8 104.905 34.6C116.905 22.6 131.405 13.3 147.305 7.6C151.605 6 156.405 6 160.805 7.6C176.605 13.4 191.205 22.6 203.205 34.6C213.405 44.8 221.405 56.4 227.205 69.4C228.005 71.1 226.305 72.9 224.505 72.3C203.505 65.3 180.605 64.3 159.005 69.7C155.805 70.5 152.505 70.5 149.305 69.7C127.705 64.4 104.805 65.3 83.8055 72.3C81.8055 73 80.1055 71.2 80.9055 69.4ZM8.00549 148.8C7.90549 147.6 7.70549 146.3 7.40549 145.1C7.10549 143.9 6.80549 142.7 6.60549 141.5C6.90549 142.7 7.10549 143.9 7.40549 145.1C7.80549 146.3 7.90549 147.5 8.00549 148.8ZM4.10549 121.6C4.10549 120.9 4.00549 120.3 4.00549 119.6C4.10549 120.3 4.10549 120.9 4.10549 121.6ZM6.30549 139.8C6.20549 139.2 6.00549 138.5 5.90549 137.9C6.00549 138.5 6.20549 139.2 6.30549 139.8ZM5.60549 136C5.50549 135.4 5.40549 134.8 5.30549 134.2C5.40549 134.9 5.50549 135.5 5.60549 136ZM5.10549 132.4C5.00549 131.8 4.90549 131.2 4.90549 130.6C4.90549 131.2 5.00549 131.8 5.10549 132.4ZM4.60549 128.8C4.50549 128.2 4.50549 127.5 4.40549 126.9C4.50549 127.6 4.60549 128.2 4.60549 128.8ZM4.30549 125.2C4.30549 124.5 4.20549 123.9 4.20549 123.2C4.20549 123.9 4.30549 124.6 4.30549 125.2ZM7.50549 154.9C7.20549 156.1 6.90549 157.3 6.70549 158.5C6.90549 157.3 7.20549 156.1 7.50549 154.9C7.80549 153.7 8.00549 152.5 8.10549 151.2C7.90549 152.5 7.80549 153.7 7.50549 154.9ZM4.00549 180.4C4.00549 179.7 4.00549 179.1 4.10549 178.4C4.10549 179.1 4.10549 179.7 4.00549 180.4ZM4.20549 176.7C4.20549 176 4.30549 175.4 4.30549 174.7C4.30549 175.4 4.20549 176.1 4.20549 176.7ZM4.40549 173.1C4.50549 172.5 4.50549 171.8 4.60549 171.2C4.60549 171.8 4.50549 172.4 4.40549 173.1ZM4.80549 169.4C4.90549 168.8 5.00549 168.2 5.00549 167.6C5.00549 168.2 4.90549 168.8 4.80549 169.4ZM5.30549 165.7C5.40549 165.1 5.50549 164.5 5.60549 163.9C5.50549 164.6 5.40549 165.1 5.30549 165.7ZM5.90549 162.1C6.00549 161.5 6.10549 160.8 6.30549 160.2C6.20549 160.8 6.00549 161.5 5.90549 162.1ZM73.7055 145.1C74.5055 148.3 74.5055 151.6 73.7055 154.8C68.4055 176.4 69.3055 199.3 76.3055 220.3C76.9055 222.1 75.1055 223.8 73.4055 223C60.4055 217.2 48.8055 209.2 38.6055 199C26.6055 187 17.3055 172.5 11.6055 156.6C10.0055 152.3 10.0055 147.5 11.6055 143.1C17.4055 127.3 26.6055 112.7 38.6055 100.7C48.8055 90.5 60.4055 82.5 73.4055 76.7C75.1055 75.9 76.9055 77.6 76.3055 79.4C69.3055 100.7 68.4055 123.5 73.7055 145.1ZM149.105 296.5C147.905 296.8 146.705 297.1 145.505 297.3C146.705 297.1 147.905 296.8 149.105 296.5C150.305 296.2 151.505 296 152.805 295.9C151.505 296.1 150.305 296.2 149.105 296.5ZM123.605 300C124.305 300 124.905 300 125.605 299.9C124.905 299.9 124.305 299.9 123.605 300ZM127.305 299.8C128.005 299.8 128.605 299.7 129.305 299.7C128.605 299.7 127.905 299.8 127.305 299.8ZM130.905 299.6C131.505 299.5 132.205 299.5 132.805 299.4C132.205 299.4 131.605 299.5 130.905 299.6ZM134.605 299.2C135.205 299.1 135.805 299 136.405 299C135.805 299 135.205 299.1 134.605 299.2ZM138.305 298.7C138.905 298.6 139.505 298.5 140.105 298.4C139.505 298.5 138.905 298.6 138.305 298.7ZM141.905 298.1C142.505 298 143.205 297.9 143.805 297.7C143.205 297.8 142.505 298 141.905 298.1ZM155.205 296C156.405 296.1 157.705 296.3 158.905 296.6C160.105 296.9 161.305 297.2 162.505 297.4C161.305 297.1 160.105 296.9 158.905 296.6C157.705 296.2 156.505 296.1 155.205 296ZM182.405 299.9C183.105 299.9 183.705 300 184.405 300C183.705 299.9 183.105 299.9 182.405 299.9ZM164.205 297.7C164.805 297.8 165.505 298 166.105 298.1C165.505 298 164.805 297.8 164.205 297.7ZM168.005 298.4C168.605 298.5 169.205 298.6 169.805 298.7C169.105 298.6 168.505 298.5 168.005 298.4ZM171.605 298.9C172.205 299 172.805 299.1 173.405 299.1C172.805 299.1 172.205 299 171.605 298.9ZM175.205 299.4C175.805 299.5 176.505 299.5 177.105 299.6C176.405 299.5 175.805 299.4 175.205 299.4ZM178.805 299.7C179.505 299.7 180.105 299.8 180.805 299.8C180.105 299.8 179.405 299.7 178.805 299.7ZM227.105 230.6C221.305 243.6 213.305 255.2 203.105 265.4C191.105 277.4 176.605 286.7 160.705 292.4C156.405 294 151.605 294 147.205 292.4C131.405 286.6 116.805 277.4 104.805 265.4C94.6055 255.2 86.6055 243.5 80.8055 230.6C80.0055 228.9 81.7055 227.1 83.5055 227.7C104.505 234.8 127.405 235.7 149.005 230.3C152.205 229.5 155.505 229.5 158.705 230.3C180.305 235.7 203.205 234.7 224.205 227.7C226.205 227 227.905 228.8 227.105 230.6ZM230.205 156.7C224.405 172.5 215.205 187.1 203.205 199.1C191.205 211.1 176.705 220.4 160.805 226.1C156.505 227.7 151.705 227.7 147.305 226.1C131.505 220.3 116.905 211.1 104.905 199.1C92.9055 187.1 83.6055 172.6 77.9055 156.7C76.3055 152.4 76.3055 147.6 77.9055 143.2C83.7055 127.4 92.9055 112.8 104.905 100.8C116.905 88.8 131.405 79.5 147.305 73.8C151.605 72.2 156.405 72.2 160.805 73.8C176.605 79.6 191.205 88.8 203.205 100.8C215.205 112.8 224.505 127.3 230.205 143.2C231.705 147.6 231.705 152.4 230.205 156.7ZM296.405 156.7C290.605 172.5 281.405 187.1 269.405 199.1C259.205 209.3 247.605 217.3 234.605 223.1C232.905 223.9 231.105 222.2 231.705 220.4C238.705 199.4 239.705 176.5 234.305 154.9C233.505 151.7 233.505 148.4 234.305 145.2C239.605 123.6 238.705 100.7 231.705 79.7C231.105 77.9 232.905 76.2 234.605 77C247.605 82.8 259.205 90.8 269.405 101C281.405 113 290.705 127.5 296.405 143.4C298.005 147.6 298.005 152.4 296.405 156.7ZM300.005 151.2C300.105 152.4 300.305 153.7 300.605 154.9C300.905 156.1 301.205 157.3 301.405 158.5C301.105 157.3 300.905 156.1 300.605 154.9C300.205 153.7 300.105 152.5 300.005 151.2ZM303.905 178.4C303.905 179.1 304.005 179.7 304.005 180.4C303.905 179.7 303.905 179.1 303.905 178.4ZM301.706 160.2C301.806 160.8 302.005 161.5 302.105 162.1C302.005 161.5 301.806 160.8 301.706 160.2ZM302.405 164C302.505 164.6 302.606 165.2 302.706 165.8C302.606 165.1 302.505 164.6 302.405 164ZM302.905 167.6C303.005 168.2 303.105 168.8 303.105 169.4C303.105 168.8 303.005 168.2 302.905 167.6ZM303.405 171.2C303.505 171.8 303.505 172.5 303.605 173.1C303.505 172.4 303.405 171.8 303.405 171.2ZM303.706 174.8C303.706 175.5 303.805 176.1 303.805 176.8C303.805 176.1 303.706 175.4 303.706 174.8Z" fill="#D8FC0F"/>
</g>
<defs>
<filter id="filter0_d_37_7" x="0" y="0" width="308.011" height="308" filterUnits="userSpaceOnUse" color-interpolation-filters="sRGB">
<feFlood flood-opacity="0" result="BackgroundImageFix"/>
<feColorMatrix in="SourceAlpha" type="matrix" values="0 0 0 0 0 0 0 0 0 0 0 0 0 0 0 0 0 0 127 0" result="hardAlpha"/>
<feOffset dy="4"/>
<feGaussianBlur stdDeviation="2"/>
<feComposite in2="hardAlpha" operator="out"/>
<feColorMatrix type="matrix" values="0 0 0 0 0 0 0 0 0 0 0 0 0 0 0 0 0 0 0.25 0"/>
<feBlend mode="normal" in2="BackgroundImageFix" result="effect1_dropShadow_37_7"/>
<feBlend mode="normal" in="SourceGraphic" in2="effect1_dropShadow_37_7" result="shape"/>
</filter>
</defs>
</svg>
