<svg width="300" height="271" viewBox="0 0 300 271" fill="none" xmlns="http://www.w3.org/2000/svg">
<path d="M295 107.221H252.4C249 107.221 246.3 104.523 246.3 101.125V58.6567C246.3 55.8588 244.1 53.6604 241.3 53.6604H198.7C195.3 53.6604 192.6 50.9624 192.6 47.5649L192.4 16.8875C192.4 14.0896 190.7 11.5914 188.2 10.4923C171.6 3.59734 153.9 0 135.6 0C60.8 0 0 60.7552 0 135.5C0 210.245 60.8 271 135.6 271C153.9 271 171.5 267.403 188.2 260.408C190.8 259.309 192.4 256.81 192.4 254.013L192.6 221.237C192.6 217.839 195.3 215.141 198.7 215.141H241.3C244.1 215.141 246.3 212.943 246.3 210.145V167.576C246.3 164.179 249 161.481 252.4 161.481H295C297.8 161.481 300 159.282 300 156.485V112.017C300 109.419 297.8 107.221 295 107.221ZM132.1 160.881H91.5C88.1 160.881 85.4 158.183 85.4 154.786V114.116C85.4 110.718 88.1 108.02 91.5 108.02H132.2C135.6 108.02 138.3 110.718 138.3 114.116V154.786C138.2 158.083 135.5 160.881 132.1 160.881ZM185.8 107.221H145.1C141.7 107.221 139 104.523 139 101.125V60.5553C139 57.1578 141.7 54.4598 145.1 54.4598H185.8C189.2 54.4598 191.9 57.1578 191.9 60.5553V101.225C191.8 104.523 189.1 107.221 185.8 107.221ZM145.1 161.681H185.8C189.2 161.681 191.9 164.379 191.9 167.776V208.446C191.9 211.844 189.2 214.542 185.8 214.542H145.1C141.7 214.542 139 211.844 139 208.446V167.776C139 164.379 141.8 161.681 145.1 161.681ZM198.8 108.12H239.5C242.9 108.12 245.6 110.818 245.6 114.216V154.886C245.6 158.283 242.9 160.981 239.5 160.981H198.8C195.4 160.981 192.7 158.283 192.7 154.886V114.216C192.7 110.818 195.4 108.12 198.8 108.12Z" fill="#FF6720"/>
</svg>
